<?xml version="1.0" encoding="iso-8859-1"?>
<!-- Uploaded to: SVG Repo, www.svgrepo.com, Generator: SVG Repo Mixer Tools -->
<svg fill="#000000" height="800px" width="800px" version="1.1" id="Capa_1" xmlns="http://www.w3.org/2000/svg" xmlns:xlink="http://www.w3.org/1999/xlink" 
	 viewBox="0 0 490.1 490.1" xml:space="preserve">
<g>
	<g>
		<g>
			<path d="M134.35,376.1l2.7-19.8c0.7-5,5-8.6,9.8-8.6c-9.1-2.1-36.3,1.3-42.1,2.4c-19.7,4.8-40.1,23.2-51.7,39.6
				c5.4,25,25.9,43.7,50.5,43.7c4.3,0,8.6-0.8,12.4-1.9c-0.8-3.1,0-6.6,2.3-9.3C128.45,411.1,131.55,394.7,134.35,376.1z"/>
			<path d="M42.15,114.3c-0.1,0-0.2,0.1-0.3,0.1C42.05,114.5,42.25,114.5,42.15,114.3z"/>
			<path d="M177.05,0c-26.4,0-48.2,21.8-51.3,49.8c12.9,2.1,24.9,53.3,25.7,72.7c0,5.4-4.3,10.1-9.7,10.1h-0.4
				c-5.4,0-9.7-4.3-10.1-9.7c0.2-26.6-16-60.3-17.2-65.1c-3.3-0.7-6.8-1.4-10.4-1.4c-24.6,0-45.1,18.8-50.5,44.2
				c5,5.8,17.7,19.1,41.2,27c20,6.8,41.6,8.9,63,7.8c5.4,0,10.1,3.9,10.5,9.3c0.4,5.4-3.9,10.1-9.3,10.5
				c-19.2,1.7-50.2-2.7-69.6-8.6c-6.2-1.9-28-6.1-48.5-31.8c-23.2,6.9-40.2,29.4-40.2,56.7c0,9.4,2,18.4,5.8,26.5
				c54.9-6.4,85.4-4.4,96.9-1.3c29.9,8.2,55.2,25.7,64.9,37.3c3.5,4.3,3.1,10.5-1.2,14c-1.9,1.6-8.6,5-14-1.2
				c-13.5-15.6-44.7-28.4-54.4-30.7c-17.9-4.2-67.6-0.5-92.4,2.1c-3.5,7.9-5.6,16.9-5.6,26.3c0,9.1,1.9,17.6,5.4,25.1
				c48.6,8.8,69.6-10.4,80.1-17c5.8-3.9,12.1-7.8,18.3-11.3c4.7-2.7,10.9-0.8,13.6,3.9c2.7,4.7,0.8,10.9-3.9,13.6
				c-5.8,3.1-11.3,6.6-16.7,10.5c-11.3,7.4-37.5,28.7-90.2,21.2c-4.2,8.3-6.7,17.9-6.7,27.8c0,26.9,17.1,49.6,40,55.8
				c18.3-23.5,45.5-53.3,110.5-46.4c11.7,1.2,21.8,6.2,29.2,12.8c4.3,3.5,4.7,10.1,0.8,14c-3.5,4.3-10.1,4.7-14,0.8
				c-5-4.3-11.3-6.3-16.5-7.3c4.5,1.5,7.4,6,6.8,10.8l-2.7,19.8c-2.3,17.1-5.8,40.8-21,56.8c-1.9,1.9-4.7,3.1-7.4,3.1
				c-0.4,0-0.4,0-0.8,0c2.7,28.8,24.9,51.3,51.7,51.3c28.8,0,51.7-25.7,51.7-57.2s0-344.2,0-375.7C229.25,25.7,205.85,0,177.05,0z
				 M104.75,307.6c-16.7,15.6-42.6,25.6-67.7,24.5c-5.4-0.4-9.7-5.1-9.3-10.5s5.1-9.7,10.5-9.3c19.1,1.2,38.9-5.8,52.9-19.1
				c3.9-3.9,10.5-3.5,14,0.4C109.05,297.5,108.65,303.7,104.75,307.6z M163.05,35c-2.7-4.7-1.2-10.9,3.5-13.6
				c4.7-2.7,10.9-1.2,13.6,3.5c14.8,24.5,22.9,52.5,22.9,81.3c0,5.4-4.3,10.1-9.7,10.1s-9.7-4.3-10.1-9.7
				C182.95,80.9,175.95,56.4,163.05,35z M162.75,206.1c-11.3-15.2-28-26.1-46.7-29.6c-5.4-1.2-8.9-6.2-7.8-11.7
				c1.2-5.4,6.2-8.9,11.7-7.8c23.3,4.7,44.7,18.3,59.1,37.3c14.4,19.1,20.6,43.9,17.9,67.7c-0.8,5.1-5.1,8.8-9.7,8.9
				c-6,0.2-10.5-5.4-9.7-10.9C179.05,240.7,173.95,221.3,162.75,206.1z M206.25,388.5c-0.8,0-1.6,0.4-2.3,0.4
				c-4.7,0-8.6-3.1-9.7-7.8c-1.9-8.6-9.7-44.3-16.7-53.3c-12.8-16.4-47.8-28.4-47.8-28.4c-5.1-2.3-7.4-8.2-5.4-13.2
				c2.3-5.1,8.2-7.4,13.2-5.4c27.6,10.2,44.3,20,56.4,35c10.1,12.6,18.3,51.7,20.6,60.3C215.25,381.9,211.75,387.3,206.25,388.5z"/>
			<path d="M114.85,57.9c-0.1,0-0.1,0-0.2,0C114.75,58.2,114.85,58.2,114.85,57.9z"/>
		</g>
		<g>
			<path d="M355.75,376.1l-2.7-19.8c-0.7-5-5-8.6-9.8-8.6c9.1-2.1,36.3,1.3,42.1,2.4c19.7,4.8,40.1,23.2,51.7,39.6
				c-5.4,25-25.9,43.7-50.5,43.7c-4.3,0-8.6-0.8-12.4-1.9c0.8-3.1,0-6.6-2.3-9.3C361.65,411.1,358.55,394.7,355.75,376.1z"/>
			<path d="M447.95,114.3c0.1,0,0.2,0.1,0.3,0.1C448.05,114.5,447.95,114.5,447.95,114.3z"/>
			<path d="M261.65,57.2c0,31.5,0,344.2,0,375.7s22.9,57.2,51.7,57.2c26.8,0,49-22.6,51.7-51.3c-0.4,0-0.4,0-0.8,0
				c-2.7,0-5.4-1.2-7.4-3.1c-15.2-15.9-18.7-39.7-21-56.8l-2.7-19.8c-0.7-4.8,2.3-9.3,6.8-10.8c-5.1,1-11.5,3-16.5,7.3
				c-3.9,3.9-10.5,3.5-14-0.8c-3.9-3.9-3.5-10.5,0.8-14c7.4-6.6,17.5-11.6,29.2-12.8c65.1-6.8,92.3,22.9,110.5,46.4
				c22.9-6.2,40-28.9,40-55.8c0-10-2.4-19.6-6.7-27.8c-52.7,7.5-78.9-13.8-90.2-21.2c-5.4-3.9-10.9-7.4-16.7-10.5
				c-4.7-2.7-6.6-8.9-3.9-13.6c2.7-4.7,8.9-6.6,13.6-3.9c6.2,3.5,12.4,7.4,18.3,11.3c10.5,6.6,31.6,25.7,80.1,17
				c3.5-7.6,5.4-16,5.4-25.1c0-9.3-2.2-18.4-5.6-26.3c-24.7-2.6-74.5-6.3-92.4-2.1c-9.7,2.3-40.9,15.1-54.4,30.7
				c-5.4,6.2-12.1,2.7-14,1.2c-4.3-3.5-4.7-9.7-1.2-14c9.7-11.7,35.1-29.1,64.9-37.3c11.5-3.2,42-5.2,96.9,1.3
				c3.7-8.1,5.8-17.1,5.8-26.5c0-27.3-17-49.8-40.2-56.7c-20.4,25.7-42.2,29.8-48.5,31.8c-19.4,5.8-50.5,10.3-69.6,8.6
				c-5.4-0.4-9.7-5.1-9.3-10.5c0.4-5.4,5.1-9.3,10.5-9.3c21.4,1.2,43-1,63-7.8c23.5-7.9,36.2-21.2,41.2-27
				c-5.4-25.4-25.9-44.2-50.5-44.2c-3.6,0-7.1,0.7-10.4,1.4c-1.2,4.9-17.4,38.5-17.2,65.1c-0.4,5.4-4.7,9.7-10.1,9.7h-0.4
				c-5.4,0-9.7-4.7-9.7-10.1c0.8-19.4,12.8-70.7,25.7-72.7c-3.1-28.3-24.9-50.1-51.3-50.1C284.25,0,260.95,25.7,261.65,57.2z
				 M384.95,293.6c3.5-3.9,10.1-4.3,14-0.4c14,13.2,33.8,20.2,52.9,19.1c5.4-0.4,10.1,3.9,10.5,9.3s-3.9,10.1-9.3,10.5
				c-25.1,1.1-50.9-8.9-67.7-24.5C381.45,303.7,381.05,297.5,384.95,293.6z M306.75,106.6c-0.4,5.4-4.7,9.7-10.1,9.7
				s-9.7-4.7-9.7-10.1c0-28.8,8.2-56.8,22.9-81.3c2.7-4.7,8.9-6.2,13.6-3.5s6.2,8.9,3.5,13.6C314.15,56.4,307.15,80.9,306.75,106.6z
				 M312.65,260.2c0.8,5.4-3.7,11.1-9.7,10.9c-4.7-0.2-8.9-3.9-9.7-8.9c-2.7-23.7,3.5-48.6,17.9-67.7s35.8-32.7,59.1-37.3
				c5.4-1.2,10.5,2.3,11.7,7.8c1.2,5.4-2.3,10.5-7.8,11.7c-18.7,3.5-35.4,14.4-46.7,29.6C316.15,221.3,311.05,240.7,312.65,260.2z
				 M275.65,376.1c2.3-8.6,10.5-47.7,20.6-60.3c12.1-15,28.8-24.8,56.4-35c5.1-1.9,10.9,0.4,13.2,5.4c1.9,5.1-0.4,10.9-5.4,13.2
				c0,0-35,12-47.8,28.4c-7,9-14.8,44.7-16.7,53.3c-1.2,4.7-5.1,7.8-9.7,7.8c-0.8,0-1.6-0.4-2.3-0.4
				C278.45,387.3,274.95,381.9,275.65,376.1z"/>
			<path d="M375.25,57.9c0.1,0,0.1,0,0.2,0C375.35,58.2,375.25,58.2,375.25,57.9z"/>
		</g>
	</g>
</g>
</svg>