<?xml version="1.0" encoding="iso-8859-1"?>
<!-- Uploaded to: SVG Repo, www.svgrepo.com, Generator: SVG Repo Mixer Tools -->
<svg fill="#000000" height="800px" width="800px" version="1.1" id="Capa_1" xmlns="http://www.w3.org/2000/svg" xmlns:xlink="http://www.w3.org/1999/xlink" 
	 viewBox="0 0 489.698 489.698" xml:space="preserve">
<g>
	<g>
		<g>
			<path d="M275.539,300.298c-15.2-40.4-0.8-89.8,33.4-115.9c76.7-34.7,71.9-95.7,58.7-127.2c-10.8-25.6-45.1-74.6-118.1-50.9
				c-55.6,16.7-104.2,55.6-135.3,105.4c-33.1,52.5-74.3,233.3,33.1,319.3c31.5,25.3,129.2,55.4,169.6-12.4
				C333.839,376.498,282.939,320.498,275.539,300.298z"/>
			<path d="M331.939,232.298h-35.4c-5.4,12.4-7.8,26.1-7,39.7h42c22.2,0,40.4,17.9,40.4,40.4v177.3h39.7v-177.7
				C411.639,267.998,375.939,232.298,331.939,232.298z"/>
			<path d="M321.839,199.598h86.7v-39.7h-33.8C368.139,172.398,326.939,196.098,321.839,199.598z"/>
		</g>
	</g>
</g>
</svg>