<?xml version="1.0" encoding="iso-8859-1"?>
<!-- Uploaded to: SVG Repo, www.svgrepo.com, Generator: SVG Repo Mixer Tools -->
<svg fill="#000000" height="800px" width="800px" version="1.1" id="Capa_1" xmlns="http://www.w3.org/2000/svg" xmlns:xlink="http://www.w3.org/1999/xlink" 
	 viewBox="0 0 487.873 487.873" xml:space="preserve">
<g>
	<g>
		<g>
			<path d="M394.173,108.494c0-17.9-14.8-33-31.5-39.3c-16.7-6.6-62.7-11.1-119.7-3.1c-70.7-11.5-102.6-3.5-119.3,3.1
				s-31.1,21.4-31.5,39.3c1.7,16.7,5.6,23.9,29.5,28.4c20.6,3.9,42.4,10.1,56.7,25.7c24.1,26,18.3,66.8,26,101.4
				c4.3,18.7,15.8,41.6,38.9,41.6c21.4,0,34.6-22.9,38.9-41.6c7.8-34.6,1.9-75.4,26-101.4c14.4-15.5,35.8-21.8,56.7-25.7
				C392.573,132.694,394.573,116.694,394.173,108.494z"/>
			<ellipse cx="389.973" cy="223.194" rx="52.1" ry="34.6"/>
			<ellipse cx="98.473" cy="223.194" rx="52.1" ry="34.6"/>
			<path d="M221.273,319.594v108h43.9v-108.4C256.473,323.094,240.273,328.794,221.273,319.594z"/>
			<path d="M487.873,164.894c-5.1-24.5-26.4-38.5-38.5-44.7c-10.1-5.1-34.6-13.2-36.5-14c0.6,3.5-1.2,13.6-3.1,19l0,0
				c9.7,3.1,21.4,7.4,30.3,11.7c15.5,7.8,26,19.4,28.4,31.5c1.9,8.9-0.9,23.3-13.2,33.4c3.5,6.2,5.1,12.8,5.4,20.2
				C467.273,217.694,487.873,200.994,487.873,164.894z"/>
			<path d="M19.173,168.794c2.3-12,12.8-23.7,28.4-31.5c8.6-4.3,18.7-7.8,28.8-11.3l0,0c-1.9-5.4-3.5-15.6-3.1-19.4
				c-3.8,0.7-24.5,8.2-34.6,13.2c-12,6.6-33,20.6-38.1,45.1c-4.6,37.8,19.8,52.9,26.4,57.1c0-7,1.9-14,5.4-20.2
				C19.573,190.394,17.173,177.694,19.173,168.794z"/>
		</g>
	</g>
</g>
</svg>